# xmcd
#
# Track frame offsets:
#	150
#	14607
#	26410
#	38433
#	52682
#	73688
#	85373
#	99796
#	116087
#	131614
#	143768
#	155090
#	170620
#	182715
#	195338
#
# Disc length: 2875 seconds
#
# Revision: 1
# Processed by: cddbd v1.5.2PL0 Copyright (c) Steve Scherf et al.
# Submitted via: audiograbber 1.83.01
#
DISCID=be0b390f
DTITLE=Various Artist - Etsi einai i agapi - CD 2
DYEAR=2012
DGENRE=Slow
TTITLE0=Nilsson - Without you
TTITLE1=Mel Torme - I've got you under my skin
TTITLE2=Nina Simone - To love somebody
TTITLE3=Andy Williams - Can't take my eyes off you
TTITLE4=Julio Iglesias - Volver a empezar
TTITLE5=Paul Anka - Put your head on my shoulder
TTITLE6=Barry Manilow - Can't smile without you
TTITLE7=Bette Middler - Fever
TTITLE8=Dionne Warwick - All the love in the world
TTITLE9=Bing Crosby - Dream a little dream on me
TTITLE10=Bobby Vinton - Blue on blue
TTITLE11=Harry Belafonte - Try to remember
TTITLE12=The Ronettes - Be my baby
TTITLE13=Rosemary Clooney - Half as much
TTITLE14=Tony Bennet - The very thought of you
EXTD=
EXTT0=
EXTT1=
EXTT2=
EXTT3=
EXTT4=
EXTT5=
EXTT6=
EXTT7=
EXTT8=
EXTT9=
EXTT10=
EXTT11=
EXTT12=
EXTT13=
EXTT14=
PLAYORDER=
